{"title":"Bad Teacher [2011] 480p DvDRip x264 { BLOVES }","uid":7144444,"size":275816348,"categoryP":"video","categoryS":"movies","magnet":"?xt=urn:btih:cb6994dcd5ffb10effc6ec37b1aa25c20283f71c&amp;dn=Bad+Teacher+%5B2011%5D+480p+DvDRip+x264+%7B+BLOVES+%7D&amp;tr=udp%3A%2F%2Ftracker.openbittorrent.com%3A80&amp;tr=udp%3A%2F%2Fopen.demonii.com%3A1337&amp;tr=udp%3A%2F%2Ftracker.coppersurfer.tk%3A6969&amp;tr=udp%3A%2F%2Fexodus.desync.com%3A6969","seeders":1,"leechers":0,"uploader":"BLOVES","files":10,"time":1333104062,"description":"Description\n Format : MPEG-4 \n Format profile : Base Media \n Codec ID : isom \n File size : 263 MiB \n Duration : 1h 28mn \n Overall bit rate mode : Variable \n Overall bit rate : 417 Kbps \n Movie name : Bad Teacher [2011]480p\n Genre : Drama, Comedy \n Encoded date : UTC 2011-08-05 20:08:54 \n Tagged date : UTC 2011-08-05 20:08:54 \n Copyright : StyLishSaLH \n Comment :Puretorrents.cc, Sceneunderground.org, Silvertorrents.me, DL67.com &amp; Kickasstorrents.com \n\n Video \n ID : 1 \n Format : AVC \n Format/Info : Advanced Video Codec \n Format profile : &lt;a class=&quot;__cf_email__&quot; href=&quot;/cdn-cgi/l/email-protection&quot; data-cfemail=&quot;1558747c7b5559213b24&quot;&gt;[email&amp;#160;protected]&lt;/a&gt;&lt;script cf-hash='f9e31' type=&quot;text/javascript&quot;&gt;\n/* &lt;![CDATA[ */!function(){try{var t=&quot;currentScript&quot;in document?document.currentScript:function(){for(var t=document.getElementsByTagName(&quot;script&quot;),e=t.length;e--;)if(t[e].getAttribute(&quot;cf-hash&quot;))return t[e]}();if(t&amp;&amp;t.previousSibling){var e,r,n,i,c=t.previousSibling,a=c.getAttribute(&quot;data-cfemail&quot;);if(a){for(e=&quot;&quot;,r=parseInt(a.substr(0,2),16),n=2;a.length-n;n+=2)i=parseInt(a.substr(n,2),16)^r,e+=String.fromCharCode(i);e=document.createTextNode(e),c.parentNode.replaceChild(e,c)}}}catch(u){}}();/* ]]&gt; */&lt;/script&gt; \n Format settings, CABAC : Yes \n Format settings, ReFrames : 16 frames \n Codec ID : avc1 \n Codec ID/Info : Advanced Video Coding \n Duration : 1h 28mn \n Bit rate : 382 Kbps \n Maximum bit rate : 1 353 Kbps \n Width : 720 pixels \n Height : 384 pixels \n Display aspect ratio : 1.875 \n Frame rate mode : Constant \n Frame rate : 25.000 fps \n Color space : YUV \n Chroma subsampling : 4:2:0 \n Bit depth : 8 bits \n Scan type : Progressive \n Bits/(Pixel*Frame) : 0.055 \n Stream size : 241 MiB (92%) \n Writing library : x264 core 114 r1913 5fd3dce \n Encoding settings : cabac=1 / ref=16 / deblock=1:-1:-1 / analyse=0x1:0x111 / me=umh / subme=9 / psy=0 / mixed_ref=1 / me_range=16 / chroma_me=1 / trellis=2 / 8x8dct=0 / cqm=0 / deadzone=21,11 / fast_pskip=1 / chroma_qp_offset=0 / threads=2 / sliced_threads=0 / nr=0 / decimate=1 / interlaced=0 / constrained_intra=0 / bframes=3 / b_pyramid=0 / b_adapt=2 / b_bias=0 / direct=3 / weightb=1 / open_gop=0 / weightp=2 / keyint=250 / keyint_min=25 / scenecut=40 / intra_refresh=0 / rc=2pass / mbtree=0 / bitrate=382 / ratetol=1.0 / qcomp=0.60 / qpmin=0 / qpmax=69 / qpstep=4 / cplxblur=20.0 / qblur=0.5 / ip_ratio=1.40 / pb_ratio=1.30 / aq=0 \n Encoded date : UTC 2011-08-05 20:08:54 \n Tagged date : UTC 2011-08-05 20:09:33 \n\n Audio \n ID : 2 \n Format : AAC \n Format/Info : Advanced Audio Codec \n Format profile : HE-AACv2 / HE-AAC / LC \n Codec ID : 40 \n Duration : 1h 28mn \n Bit rate mode : Variable \n Bit rate : 32.0 Kbps \n Maximum bit rate : 38.3 Kbps \n Channel(s) : 2 channels / 1 channel / 1 channel \n Channel positions : Front: L R / Front: C / Front: C \n Sampling rate : 48.0 KHz / 48.0 KHz / 24.0 KHz \n Compression mode : Lossy \n Stream size : 20.2 MiB (8%) \n Language : English \n Encoded date : UTC 2011-08-05 20:09:31 \n Tagged date : UTC 2011-08-05 20:09:33","torrent":{"xt":"urn:btih:cb6994dcd5ffb10effc6ec37b1aa25c20283f71c","amp;dn":"Bad+Teacher+%5B2011%5D+480p+DvDRip+x264+%7B+BLOVES+%7D","amp;tr":["udp%3A%2F%2Ftracker.openbittorrent.com%3A80","udp%3A%2F%2Fopen.demonii.com%3A1337","udp%3A%2F%2Ftracker.coppersurfer.tk%3A6969","udp%3A%2F%2Fexodus.desync.com%3A6969"],"infoHash":"cb6994dcd5ffb10effc6ec37b1aa25c20283f71c","infoHashBuffer":{"type":"Buffer","data":[203,105,148,220,213,255,177,14,255,198,236,55,177,170,37,194,2,131,247,28]},"announce":[],"urlList":[]}}